Title                            : The Taking of Pelham 1 2 3
Year                             : 2009
Genre                            : Crime | Drama | Thriller
iMDB URL                         : http://www.imdb.com/title/tt1111422/
Awards                           : 2 nominations

Complete name                    : The.Taking.of.Pelham.1.2.3.2009.DVDRIP.H264-ZEKTORM.mp4
Format                           : MPEG-4
Format profile                   : Base Media
Codec ID                         : isom
File size                        : 701 MiB
Duration                         : 1h 45mn
Overall bit rate                 : 925 Kbps
Subtitles                        : English, French (Format: VobSub)

Video
Format                           : AVC
Format/Info                      : Advanced Video Codec
Format profile                   : High@L4.1
Format settings, CABAC           : Yes
Format settings, ReFrames        : 10 frames
Codec ID                         : avc1
Codec ID/Info                    : Advanced Video Coding
Duration                         : 1h 45mn
Bit rate mode                    : Variable
Bit rate                         : 841 Kbps
Maximum bit rate                 : 11.5 Mbps
Width                            : 720 pixels
Height                           : 352 pixels
Display aspect ratio             : 2.426
Frame rate mode                  : Constant
Frame rate                       : 23.976 fps
Resolution                       : 24 bits
Colorimetry                      : 4:2:0
Scan type                        : Progressive
Bits/(Pixel*Frame)               : 0.138
Stream size                      : 637 MiB (91%)
Title                            : Video
Writing library                  : x264

Audio
Format                           : AAC
Format/Info                      : Advanced Audio Codec
Format version                   : Version 4
Format profile                   : LC
Format settings, SBR             : Yes
Format settings, PS              : No
Codec ID                         : 40
Duration                         : 1h 45mn
Bit rate mode                    : Variable
Bit rate                         : 81.3 Kbps
Maximum bit rate                 : 107 Kbps
Channel(s)                       : 2 channels
Channel positions                : L R
Sampling rate                    : 48.0 KHz
Resolution                       : 16 bits
Stream size                      : 61.6 MiB (9%)
Title                            : English
Language                         : English
